<?xml version="1.0" standalone="no"?>
<!DOCTYPE svg PUBLIC "-//W3C//DTD SVG 20010904//EN"
 "http://www.w3.org/TR/2001/REC-SVG-20010904/DTD/svg10.dtd">
<svg version="1.0" xmlns="http://www.w3.org/2000/svg"
 width="260.000000pt" height="260.000000pt" viewBox="0 0 260.000000 260.000000"
 preserveAspectRatio="xMidYMid meet">
<metadata>
Created by potrace 1.14, written by Peter Selinger 2001-2017
</metadata>
<g transform="translate(0.000000,260.000000) scale(0.100000,-0.100000)"
fill="#000000" stroke="none">
<path d="M1475 2469 c-16 -4 -27 -7 -23 -8 5 -1 -361 -371 -367 -371 -8 0 -75
74 -75 83 0 6 -2 8 -5 5 -7 -7 -155 141 -155 155 0 5 -3 8 -6 4 -4 -3 -14 3
-24 15 l-17 21 -51 -23 c-29 -13 -52 -27 -52 -32 0 -4 -7 -8 -15 -8 -8 0 -24
-8 -34 -17 -34 -31 -50 -43 -57 -43 -4 0 -15 -10 -25 -22 -11 -11 -19 -18 -19
-15 0 4 -35 -28 -79 -71 -43 -42 -77 -79 -75 -81 2 -2 -4 -11 -14 -20 -22 -21
-82 -109 -82 -121 0 -6 -4 -10 -9 -10 -5 0 -12 -11 -15 -25 -4 -14 -10 -25
-15 -25 -5 0 -12 -13 -16 -30 -4 -16 -11 -30 -16 -30 -5 0 -8 -3 -8 -7 4 -23
-2 -43 -10 -38 -6 3 -9 -3 -9 -12 0 -10 -5 -31 -12 -48 -7 -16 -12 -36 -11
-44 1 -7 -2 -10 -8 -7 -6 4 -8 -5 -7 -21 2 -16 0 -30 -4 -33 -4 -3 -11 -27
-14 -54 -4 -27 -9 -52 -11 -55 -2 -3 -4 -26 -6 -51 -1 -25 -5 -49 -8 -55 -9
-17 -10 -35 0 -41 5 -3 9 -10 9 -15 0 -6 -5 -7 -12 -3 -7 5 -8 3 -2 -7 12 -19
11 -42 -1 -51 -6 -5 -5 -8 3 -8 6 0 12 -5 12 -11 0 -5 -6 -7 -12 -3 -10 6 -10
5 -1 -7 6 -8 11 -30 12 -49 0 -31 7 -75 11 -75 1 0 3 -16 6 -35 6 -44 9 -61
17 -80 3 -8 7 -24 9 -35 2 -11 6 -22 9 -25 3 -3 13 -31 23 -62 10 -32 22 -58
27 -58 4 0 6 -7 3 -15 -4 -8 -2 -15 3 -15 6 0 16 -18 23 -40 7 -21 17 -37 21
-34 8 5 11 -3 8 -22 0 -4 3 -10 8 -13 5 -3 24 -27 41 -53 18 -25 39 -54 48
-62 8 -9 13 -16 9 -16 -3 0 29 -34 70 -75 42 -41 80 -75 85 -75 5 0 16 -10 24
-22 9 -12 16 -18 16 -13 0 5 7 0 15 -11 8 -10 15 -15 15 -11 0 4 11 -4 25 -18
14 -14 35 -25 47 -25 12 0 18 -3 15 -7 -8 -8 160 -92 186 -93 9 0 17 -4 17 -8
0 -4 12 -9 26 -10 14 -1 31 -5 37 -9 7 -4 21 -9 32 -11 24 -4 48 -10 55 -12 3
-1 9 -2 14 -1 4 1 14 -4 22 -10 11 -9 14 -9 14 1 0 10 3 10 15 0 8 -7 15 -9
15 -4 0 5 5 2 10 -6 7 -11 10 -11 10 -2 0 8 5 10 12 6 7 -4 24 -8 38 -9 14 -1
32 -5 39 -10 10 -5 12 -4 7 3 -8 13 20 12 42 -1 7 -5 14 -2 18 7 3 9 10 13 15
10 5 -3 7 -9 4 -14 -3 -5 5 -7 17 -4 13 3 43 7 68 8 25 1 51 5 57 9 7 4 34 9
60 11 26 2 49 8 50 13 2 6 17 9 33 7 17 -2 30 1 30 6 0 6 10 10 23 10 13 0 27
3 31 7 4 5 12 9 17 9 5 1 11 3 14 4 3 1 8 3 13 4 4 1 30 13 57 25 28 13 52 23
54 22 2 -2 7 1 10 6 3 4 23 17 44 28 20 11 37 23 37 28 0 4 5 5 10 2 6 -3 10
-1 10 4 0 6 5 11 11 11 7 0 20 10 30 22 11 11 19 17 19 13 0 -4 14 6 30 23 17
18 30 29 30 26 0 -3 29 23 65 59 36 36 65 69 65 73 0 3 10 15 22 25 11 11 17
19 12 19 -5 0 2 7 14 16 12 8 20 19 17 24 -3 4 2 10 10 14 8 3 15 10 15 16 0
6 13 31 30 54 16 24 26 46 23 50 -4 3 -1 6 6 6 7 0 9 5 6 10 -3 6 0 10 7 10 9
0 9 3 -2 10 -8 5 -10 10 -5 10 6 1 0 5 -13 11 -13 5 -21 13 -17 18 3 5 -4 12
-14 16 -11 3 -23 14 -26 24 -3 10 -16 24 -30 31 -13 7 -22 16 -20 20 2 4 -7
13 -20 20 -14 7 -25 20 -25 27 0 8 -4 11 -10 8 -5 -3 -10 1 -10 10 0 9 -4 13
-10 10 -5 -3 -10 1 -10 10 0 9 -3 14 -7 12 -5 -2 -21 11 -36 29 l-28 33 53 53
c29 29 56 52 60 51 4 -2 10 6 13 17 4 11 11 17 17 14 7 -5 9 -1 5 9 -4 10 -2
17 5 17 6 0 33 22 59 50 26 28 53 50 58 50 6 0 10 4 8 8 -1 5 23 32 53 61 55
52 67 81 46 110 -9 12 -8 13 3 6 11 -6 11 -3 -1 14 -9 12 -13 31 -10 43 2 11
0 23 -6 27 -6 4 -12 22 -14 40 -1 18 -6 35 -10 37 -4 3 -8 14 -8 25 0 10 -5
19 -11 19 -5 0 -7 5 -4 10 3 6 2 10 -4 10 -6 0 -8 7 -5 15 4 8 1 15 -5 15 -6
0 -10 3 -9 8 1 4 -3 17 -10 30 -7 12 -10 22 -7 22 3 0 -3 10 -14 22 -11 11
-18 25 -15 29 2 4 -3 12 -12 17 -9 5 -14 12 -12 17 1 4 -4 12 -13 18 -13 8
-21 6 -32 -5 -9 -9 -13 -18 -10 -22 4 -3 1 -6 -6 -6 -14 0 -106 -92 -103 -102
1 -5 -5 -8 -13 -8 -8 0 -15 -7 -15 -15 0 -8 -4 -15 -10 -15 -12 0 -90 -79 -90
-91 0 -5 -4 -9 -10 -9 -13 0 -150 -138 -150 -151 0 -5 -4 -9 -10 -9 -12 0
-180 -168 -180 -181 0 -5 -3 -8 -7 -7 -10 3 -103 -89 -103 -102 0 -5 -4 -10
-10 -10 -12 0 -65 -53 -62 -62 1 -5 -3 -8 -8 -8 -13 0 -56 -43 -53 -52 2 -5
-1 -8 -6 -8 -14 0 -100 -87 -94 -94 4 -3 1 -6 -5 -6 -7 0 -39 -27 -72 -61
l-60 -61 -25 20 c-13 11 -21 22 -18 26 3 3 -1 6 -11 6 -9 0 -14 5 -11 10 3 6
-2 10 -11 10 -10 0 -15 3 -12 6 4 3 -49 60 -116 127 -68 67 -121 128 -118 135
2 6 8 10 13 6 5 -3 9 0 9 5 0 14 837 851 851 851 5 0 8 4 7 8 -2 4 46 55 105
114 l108 106 -30 21 c-16 12 -34 21 -40 21 -6 0 -11 3 -11 8 0 7 -11 12 -100
50 -63 27 -84 35 -92 36 -3 1 -9 4 -13 8 -4 4 -13 4 -21 1 -8 -3 -14 -1 -14 4
0 5 -12 10 -26 11 -15 1 -32 6 -39 12 -8 6 -16 5 -25 -3 -10 -10 -11 -9 -5 2
6 11 4 13 -8 8 -10 -3 -17 -3 -17 2 0 9 -14 9 -55 0z"/>
</g>
</svg>
