<svg width="25" height="24" viewBox="0 0 25 24" fill="none" xmlns="http://www.w3.org/2000/svg">
<path d="M5.81891 14.5035L4.9835 17.6222L1.93011 17.6868C1.01759 15.9943 0.5 14.0578 0.5 12C0.5 10.0101 0.983938 8.13361 1.84175 6.48132H1.84241L4.56078 6.97969L5.75159 9.68175C5.50236 10.4084 5.36652 11.1884 5.36652 12C5.36661 12.8809 5.52617 13.7249 5.81891 14.5035Z" fill="#FBBB00"/>
<path d="M24.2903 9.75825C24.4281 10.4842 24.5 11.2338 24.5 12C24.5 12.8591 24.4097 13.6972 24.2376 14.5055C23.6534 17.2563 22.127 19.6582 20.0125 21.358L20.0119 21.3574L16.588 21.1827L16.1034 18.1576C17.5064 17.3347 18.6029 16.047 19.1805 14.5055H12.7638V9.75825H19.2741H24.2903Z" fill="#518EF8"/>
<path d="M20.0118 21.3574L20.0125 21.358C17.956 23.011 15.3437 24 12.4999 24C7.93005 24 3.95688 21.4457 1.93005 17.6868L5.81885 14.5035C6.83224 17.2081 9.44126 19.1334 12.4999 19.1334C13.8146 19.1334 15.0463 18.778 16.1032 18.1576L20.0118 21.3574Z" fill="#28B446"/>
<path d="M20.1596 2.76262L16.2721 5.94525C15.1783 5.26153 13.8853 4.86656 12.5 4.86656C9.37212 4.86656 6.71431 6.88017 5.75169 9.68175L1.84245 6.48131H1.8418C3.83895 2.63077 7.86223 0 12.5 0C15.4117 0 18.0814 1.03716 20.1596 2.76262Z" fill="#F14336"/>
</svg>
